<svg width="25" height="24" viewBox="0 0 25 24" fill="none" xmlns="http://www.w3.org/2000/svg">
<path fill-rule="evenodd" clip-rule="evenodd" d="M9.05895 18.2593C9.02304 18.1826 9.06188 18.192 8.96002 18.097C8.86906 18.0121 8.83061 18.0134 8.79826 17.9768C8.75957 17.933 8.5933 17.9051 8.52936 17.8986L8.43288 17.8964L8.10797 17.8694L7.71308 17.8926L7.47807 17.9145C7.46602 17.9145 7.45373 17.9208 7.44144 17.9216L7.30344 17.9279C7.24565 17.9412 7.26903 17.9243 7.23432 17.932C7.06978 17.9683 6.93514 17.952 6.76652 17.9598L6.40277 17.9973C6.39399 18.0041 6.39471 17.9828 6.36504 17.9964C6.33908 18.0084 6.15922 18.0004 6.07704 18.0437C5.91543 18.1289 5.91202 18.1445 5.7781 18.2244C5.67226 18.2874 5.74373 18.2768 5.72919 18.3301L5.73135 18.3574C5.68676 18.3908 5.68978 18.3816 5.72506 18.435C5.75597 18.4819 5.79572 18.4574 5.80512 18.4596C5.87674 18.4766 5.83354 18.502 5.85951 18.4959C5.98882 18.4659 5.8657 18.486 6.06744 18.5213C6.06759 18.5214 6.13608 18.5244 6.14343 18.5391C6.16076 18.5737 6.17463 18.5524 6.19455 18.5549L6.81404 18.5959L7.22396 18.6377L7.52266 18.6243C7.58866 18.6374 8.14186 18.6021 8.24247 18.6098C8.3028 18.6204 8.47152 18.6135 8.53431 18.5855L8.58432 18.5817C8.604 18.5691 8.62311 18.5472 8.64336 18.5535C8.64418 18.5541 8.64557 18.553 8.64639 18.5522C8.66597 18.5295 8.681 18.5551 8.70077 18.5273C8.71608 18.5058 8.79519 18.523 8.8549 18.4894C8.90319 18.4621 8.94365 18.4931 8.96146 18.462C9.00077 18.3934 9.02252 18.4321 9.03581 18.3901C9.04623 18.3573 9.05804 18.3778 9.0612 18.3628C9.06639 18.3391 9.0746 18.3341 9.0828 18.3235L9.05895 18.2593ZM10.7245 16.9397C10.7835 16.9384 10.8428 16.9329 10.9016 16.9315L11.7178 16.9277C11.7498 16.9277 11.7817 16.9219 11.8137 16.9247L12.3636 16.9181L12.5508 16.9001C12.5789 16.8979 12.6068 16.9039 12.6349 16.8962C12.6819 16.8837 12.7281 16.8615 12.777 16.8686C12.7796 16.8688 12.7822 16.8681 12.7844 16.8667C12.8231 16.8453 12.8689 16.8685 12.9145 16.8424C12.9491 16.8225 13.1555 16.833 13.2853 16.8038C13.3969 16.7788 13.5004 16.8063 13.5408 16.7771C13.6366 16.7077 13.6868 16.7472 13.7193 16.7049C13.7433 16.6736 13.7737 16.6908 13.7808 16.6778C13.793 16.6535 13.813 16.6483 13.8329 16.638C13.7852 16.6082 13.7937 16.5913 13.775 16.5737C13.6983 16.5015 13.7706 16.4992 13.5386 16.4114L13.3047 16.336C13.0296 16.2787 13.2229 16.2664 12.7393 16.2294C12.6609 16.224 12.5819 16.2166 12.5032 16.2133L12.2706 16.2108L11.4891 16.1838L10.5406 16.207C10.3289 16.216 10.2019 16.2314 9.9768 16.2294C9.94704 16.2289 9.91752 16.2354 9.88829 16.2362L9.55599 16.2422C9.45826 16.252 9.45183 16.2404 9.39039 16.2463C8.94567 16.288 8.44416 16.2626 7.97789 16.284L7.392 16.3119C7.36556 16.3191 7.37866 16.2975 7.30047 16.3114C7.21512 16.3266 6.81437 16.3136 6.60884 16.3581C6.45072 16.3923 6.22882 16.4403 6.07786 16.4887C6.01848 16.5078 5.73106 16.5665 5.74666 16.6005C5.75703 16.613 5.77316 16.6043 5.78136 16.6226C5.75861 16.6764 5.75612 16.6501 5.77805 16.672C5.75146 16.6797 5.71119 16.6872 5.69828 16.7046C5.8057 16.831 6.01824 16.7413 6.0516 16.7958C6.07565 16.8351 6.19359 16.7785 6.26938 16.7988C6.3876 16.8306 6.74746 16.8365 6.76781 16.8538C6.80775 16.8876 6.84346 16.8674 6.8905 16.8694C6.90989 16.8702 6.92933 16.874 6.94896 16.8745L8.23277 16.9046C8.69156 16.9212 9.138 16.9604 9.59722 16.9513C9.68295 16.9496 9.77698 16.9354 9.86285 16.9412C9.9361 16.9461 10.0091 16.9261 10.0834 16.9387L10.7245 16.9397ZM5.70893 15.0312C5.7889 15.0785 5.85917 15.1102 5.9557 15.0891C5.95724 15.0888 6.06524 15.0887 6.07978 15.1104C6.10652 15.1506 6.23064 15.0931 6.31532 15.114C6.43613 15.1439 6.83228 15.1521 6.85392 15.1684C6.90058 15.2034 6.9336 15.1817 6.98592 15.1842L8.43615 15.2197C8.92484 15.2376 9.42461 15.2744 9.90989 15.2662C9.99946 15.2647 10.103 15.2505 10.1963 15.2558C10.2761 15.2607 10.3548 15.2413 10.4346 15.2539L11.1276 15.2542C11.1915 15.2534 11.2555 15.2474 11.3189 15.2466L12.2007 15.2427C12.2354 15.2422 12.2699 15.237 12.3043 15.2392L12.8981 15.2326L13.1001 15.2146C13.1309 15.2129 13.161 15.2184 13.1914 15.211C13.2422 15.1984 13.2919 15.1766 13.3444 15.1831C13.3471 15.1834 13.3499 15.1826 13.3526 15.1818C13.4085 15.1583 13.4383 15.1854 13.4933 15.1566L13.7272 15.1386C13.8445 15.1401 13.9248 15.1007 14.0125 15.1066C14.2234 15.1209 14.1519 15.0574 14.311 15.0427C14.3763 15.0366 14.3516 15.0021 14.4061 14.9992C14.4487 14.997 14.3974 14.9953 14.4853 14.9531C14.4337 14.9224 14.4411 14.9029 14.4227 14.8888C14.3333 14.8206 14.4431 14.825 14.1672 14.7265L13.915 14.6508C13.7849 14.6265 13.744 14.5993 13.6964 14.5907C13.4095 14.5384 13.1089 14.5272 12.8181 14.5267C12.5588 14.5265 12.2222 14.5013 11.9537 14.4985C11.7331 14.5012 11.1167 14.5069 10.9293 14.5221L10.3199 14.5439C10.2879 14.5439 10.2559 14.5499 10.2245 14.5507L9.6864 14.5611C9.63749 14.5649 9.5894 14.5715 9.54048 14.5737C9.07604 14.5917 8.61624 14.5792 8.16101 14.5985L7.52784 14.6267C7.5026 14.6333 7.5062 14.612 7.42863 14.6258C7.34079 14.6415 6.89895 14.6285 6.6818 14.6728C6.62544 14.6844 5.72372 14.8733 5.7505 14.9149C5.76116 14.9275 5.77949 14.9193 5.78794 14.9371C5.77143 14.9791 5.75597 14.9687 5.78439 14.9866C5.75511 14.9956 5.71416 15.0006 5.69832 15.0193C5.70351 15.0252 5.70567 15.0296 5.70893 15.0312ZM6.70527 6.67306C6.73373 7.01611 6.71948 7.28035 6.73479 7.59998C6.74036 7.71653 6.75749 7.74053 6.75802 7.8697C6.7586 7.93392 6.75586 7.99925 6.76839 8.06074C6.76978 8.06731 6.7706 8.07466 6.77002 8.08123C6.7632 8.2165 6.78504 8.34384 6.79762 8.47421C6.80804 8.57909 6.79594 8.71642 6.80199 8.80949C6.81101 8.94806 6.81317 9.08794 6.81975 9.22675C6.83535 9.5604 6.82359 9.89486 6.82959 10.2288C6.83261 10.4026 6.83012 10.5761 6.82575 10.7499C6.82354 10.8382 6.82901 10.927 6.82901 11.0153L6.83175 12.2603C6.83199 12.55 7.01712 12.7864 7.30503 12.823C7.39896 12.8349 7.824 12.8266 7.88818 12.8265C7.81047 12.5313 7.72373 12.2905 7.77504 11.9777C7.81124 11.7573 7.8456 11.7006 7.9032 11.5113C7.92912 11.4261 7.94261 11.4464 7.94804 11.4183C7.96772 11.3167 8.16293 11.0228 8.23853 10.921C8.36458 10.7512 8.58236 10.545 8.75554 10.4352L9.02525 10.2788C8.73048 10.0227 8.53805 9.66485 8.50359 9.27374C8.48679 9.08299 8.51636 8.8187 8.58365 8.63429L8.71455 8.35334C8.84919 8.13432 9.04349 7.93214 9.28623 7.83715L9.51716 7.78195C9.63615 7.75334 9.87024 7.76342 9.97896 7.83413C9.99783 7.84637 9.97901 7.85078 10.038 7.90354C10.0535 7.91736 10.0493 7.93733 10.0916 7.96502C10.0204 8.01173 10.0637 8.01043 10.0293 8.01451C9.98986 8.01917 10.0073 8.05037 9.96039 8.06424C9.86736 8.09174 9.87332 8.14104 9.84586 8.14838C9.6781 8.19322 9.7212 8.21184 9.59717 8.28941C9.45792 8.37648 9.48562 8.41094 9.45562 8.43754C9.41506 8.47349 9.43392 8.47824 9.4261 8.48424C9.39288 8.50992 9.39288 8.54582 9.38372 8.5777C9.37575 8.60554 9.34431 8.60818 9.30773 8.74603C9.28728 8.82298 9.25368 8.89685 9.24788 8.97696C9.24216 9.01824 9.23996 9.05923 9.23256 9.10104C9.22954 9.12235 9.23775 9.14338 9.23856 9.16469C9.24783 9.33182 9.3242 9.52646 9.43642 9.65496C9.5006 9.7285 9.67296 9.85411 9.76815 9.88915C9.91618 9.94118 9.88436 9.93845 10.0283 9.94954C10.1909 9.96206 10.5022 9.87058 10.638 9.76234C10.7804 9.64877 10.9033 9.50203 10.95 9.32266C11.0141 9.07685 10.9835 8.80661 10.8391 8.59411L10.8 8.53675C10.7308 8.48107 10.8419 8.51827 10.6912 8.37715L10.5111 8.22139C10.4651 8.17488 10.3645 8.20109 10.3576 8.16043C10.3534 8.13595 10.2808 8.11838 10.2764 8.11915C10.2179 8.12976 10.1233 8.08147 10.0914 8.03146C10.1032 8.01413 10.1332 8.01058 10.16 8.00251C10.1324 7.97486 10.165 7.98221 10.166 7.95331C10.1665 7.93939 10.0747 7.92288 10.2086 7.88938L10.4658 7.87133C10.6743 7.86782 10.9304 7.95437 11.1017 8.08286C11.2417 8.18784 11.4021 8.42501 11.4618 8.58293C11.4825 8.63741 11.5095 8.66458 11.5067 8.70893L11.5394 8.80646C11.5853 9.00638 11.5834 9.19162 11.5638 9.39374L11.4739 9.71563C11.3862 9.90475 11.2971 10.0456 11.1443 10.1952C11.5755 10.3885 11.9851 10.7157 12.2158 11.1372C12.2605 11.2177 12.3774 11.4405 12.3901 11.5151C12.4023 11.586 12.4974 11.723 12.5208 12.0463C12.5271 12.1343 12.5397 12.1768 12.5311 12.275C12.5015 12.6169 12.5047 12.4041 12.4505 12.6683L12.4013 12.8303C12.5882 12.834 12.7286 12.8462 12.9017 12.83C12.9474 12.8257 13.0445 12.7879 13.0864 12.7617C13.2669 12.6487 13.3673 12.4901 13.3761 12.2808L13.3835 11.6574L13.4122 8.45827C13.4139 8.34091 13.3945 8.22696 13.4278 8.11944C13.4391 8.08277 13.4603 6.97406 13.4827 6.73728C13.4927 6.62976 13.4766 6.34805 13.4715 6.22819C13.4666 6.11434 13.4953 6.16925 13.4996 6.05986L13.5021 5.99726C13.3786 6.22402 13.0851 6.47285 12.8298 6.56568C12.4366 6.70858 12.0722 6.70051 11.6979 6.51374C11.5337 6.42967 11.3855 6.31739 11.2602 6.18202L11.2236 6.22301C11.0939 6.39686 10.8109 6.56386 10.6065 6.63672C10.0292 6.84254 9.34776 6.69744 8.9292 6.24624C8.68392 6.50885 8.34154 6.69254 7.98341 6.73814C7.65696 6.77971 7.4978 6.7549 7.20188 6.66437C7.00872 6.60528 6.84538 6.49872 6.6936 6.3684C6.69106 6.46949 6.69735 6.5725 6.70527 6.67306ZM11.9949 12.8227L11.365 12.8131L10.558 12.8159C10.3141 12.8169 10.0686 12.8314 9.82268 12.8257C9.61906 12.8213 9.4166 12.8407 9.21164 12.8281C9.09111 12.8205 8.96732 12.8265 8.84492 12.8265L8.20604 12.8257C8.21285 12.7999 8.18156 12.6796 8.19591 12.6251C8.20724 12.5678 8.2404 12.1955 8.27492 12.1698C8.316 12.1393 8.29455 12.1062 8.30799 12.0684C8.34932 11.9524 8.3618 11.871 8.4206 11.746L8.61408 11.4252C8.81708 11.1719 8.89604 11.0982 9.17429 10.9406C9.31095 10.8633 9.36744 10.8457 9.51672 10.8005C9.66288 10.7562 10.03 10.6868 10.1717 10.7027C10.2388 10.7101 10.2823 10.6915 10.3535 10.7182C10.3879 10.7319 10.4259 10.7283 10.4614 10.7379C10.6822 10.797 10.7047 10.8068 10.9257 10.9046C11.0469 10.9583 11.2806 11.1354 11.3572 11.226L11.5485 11.4503C11.5985 11.5205 11.7497 11.8296 11.7922 11.9129C11.8297 11.9847 11.8335 12.0468 11.848 12.0695C11.9079 12.1636 11.8909 12.18 11.8982 12.1895C11.9138 12.2067 11.9144 12.2274 11.9176 12.2474C11.9305 12.31 11.9384 12.2837 11.9472 12.3299C11.9672 12.435 11.9539 12.5215 11.983 12.6482C12.0006 12.7255 11.9922 12.7512 11.9949 12.8227ZM6.0888 12.1349C6.08328 11.3806 6.09524 10.6532 6.10248 9.90202C6.1044 9.76238 6.10167 9.62246 6.11261 9.48365C6.11372 9.4667 6.11343 9.44952 6.11372 9.43229C6.11372 9.23443 6.11208 9.03686 6.11506 8.83877C6.12048 8.46614 6.14703 7.31386 6.1932 7.04861C6.23616 6.80194 6.23736 6.50088 6.27903 6.22853L6.32276 5.90251C6.25743 5.77819 6.20688 5.64566 6.17712 5.50848C6.13954 5.35517 6.13868 5.30674 6.13124 5.15486C6.12696 5.06755 6.15668 5.00165 6.20804 4.93982C6.47909 4.61347 6.71444 4.29854 6.97484 3.96864L7.44812 3.3732C7.56452 3.22656 7.69992 3.23597 7.85117 3.23462L9.50717 3.22862L10.5407 3.24254C10.6557 3.24394 10.7708 3.24173 10.8847 3.25238L11.4146 3.25459L12.4861 3.29338C12.5269 3.29627 12.5665 3.30801 12.6023 3.32779C12.6381 3.34757 12.6691 3.37491 12.6932 3.4079C12.7583 3.49718 12.9022 3.69643 12.9526 3.79186C13.0542 3.98429 13.2071 4.17259 13.322 4.38182L13.5494 4.78488L13.6141 4.94803C13.5961 4.98653 13.6256 5.02896 13.6256 5.07293C13.6256 5.1265 13.6256 5.1265 13.6477 5.17896C13.6095 5.14728 13.5767 5.11502 13.5357 5.10163C13.5125 5.09386 13.4862 5.03573 13.4229 5.00654C13.3475 4.97184 13.2695 4.84128 13.1045 4.73275C13.0494 4.69646 12.9266 4.54603 12.8862 4.4939C12.7764 4.3523 12.6235 4.2287 12.4913 4.0668C12.4413 4.0056 12.3885 3.94627 12.3363 3.8867C12.2324 3.90778 12.1337 3.88843 12.0546 3.9083C12.0493 3.90961 12.0437 3.91025 12.0382 3.91022C11.927 3.90341 11.8221 3.92525 11.7149 3.93782C11.6348 3.94718 11.5127 3.93658 11.4392 3.94219C11.325 3.95064 11.2102 3.95338 11.0963 3.95966C10.8214 3.97522 10.5464 3.96374 10.2721 3.96922C10.1292 3.97277 9.98626 3.97003 9.8436 3.96566C9.77117 3.96374 9.69797 3.96869 9.62525 3.96922L7.91405 3.97301L6.85052 5.27486C6.88301 5.47766 6.94416 5.61259 7.08692 5.76427C7.52064 6.22526 8.27976 6.18926 8.6232 5.56752C8.76039 5.31922 9.11765 5.33026 9.24269 5.57789C9.35136 5.79312 9.47448 5.9375 9.70344 6.04272C9.9216 6.14299 10.2279 6.15211 10.4615 6.05693C10.6914 5.96328 10.8594 5.8224 10.9772 5.59594C11.0855 5.38762 11.3957 5.35714 11.5303 5.59594C11.6133 5.74325 11.6838 5.85163 11.8347 5.95939C11.8879 5.99736 11.9179 6.02606 11.9809 6.05011C12.1658 6.12072 12.037 6.12408 12.2716 6.17088C12.5208 6.22056 12.9596 6.1356 13.1158 5.95992L13.2363 5.81918C13.2883 5.7419 13.2901 5.83186 13.3975 5.63006C13.4471 5.53699 13.4848 5.3292 13.5448 5.24942C13.5637 5.22427 13.5517 5.21414 13.5776 5.15486C13.5946 5.1912 13.5978 5.26368 13.603 5.31091C13.6152 5.27626 13.6099 5.29234 13.6448 5.33635C13.6759 5.31331 13.6703 5.19197 13.6984 5.3172C13.7313 5.4637 13.7706 6.01382 13.7932 6.2075C13.8477 6.67426 13.8869 7.20533 13.9236 7.6777C13.9708 8.28734 13.9623 9.15518 13.9703 9.79771L13.999 11.6972C14.0011 11.9188 14.0145 12.1687 14.003 12.3856C13.989 12.6527 13.8454 12.9447 13.6582 13.1338C13.4029 13.3917 13.1117 13.49 12.7662 13.497L12.0992 13.4986C12.0719 13.4986 12.0443 13.4978 12.0175 13.4994C11.8475 13.5098 11.6767 13.5054 11.5062 13.5084L11.02 13.5227L9.75207 13.5314C9.67008 13.5317 9.58868 13.5382 9.50693 13.5382C8.795 13.5378 8.1085 13.562 7.40415 13.5677C6.68784 13.5736 6.13176 13.0401 6.09216 12.3309L6.0888 12.1349ZM22.4903 8.00386C22.4851 7.84104 22.2529 7.78742 22.19 7.72838L21.8812 7.56418L21.5773 7.3811C21.5046 7.3223 21.3609 7.34035 21.3136 7.41989L20.8993 8.082C20.8838 8.13235 20.8537 8.11459 20.8397 8.13336C20.8069 8.17872 20.6808 8.36318 20.6274 8.40773C20.6069 8.42486 20.5878 8.48242 20.5779 8.5091L21.7508 9.1729C21.8157 9.20864 21.8808 9.24389 21.9462 9.27864C21.9817 9.22666 21.9713 9.16814 22.0126 9.09912C22.0919 8.96659 22.0679 8.94067 22.0848 8.90947C22.0924 8.89498 22.1033 8.88158 22.1009 8.86138C22.1007 8.8605 22.1006 8.85959 22.1007 8.8587C22.1009 8.85781 22.1012 8.85695 22.1017 8.85619C22.1252 8.82888 22.1227 8.78923 22.1288 8.75371L22.1687 8.6761C22.2074 8.53958 22.2812 8.4421 22.3291 8.34355C22.3488 8.30285 22.3736 8.26483 22.3998 8.22768L22.4826 8.06726C22.4881 8.04706 22.4909 8.02574 22.4903 8.00386ZM21.4579 9.80472C21.2923 10.0922 21.1269 10.412 20.9617 10.6849C20.8463 10.8756 20.7526 11.0768 20.6302 11.2645C20.5577 11.3749 20.4952 11.4948 20.4282 11.6104L19.6585 12.9459C19.5713 13.1019 19.4844 13.2579 19.3972 13.4137L18.1653 15.5564C18.1169 15.64 18.073 15.7269 18.0229 15.8091C17.9245 15.9715 17.8275 16.134 17.7352 16.3002C17.5581 16.6191 17.3649 16.9298 17.1961 17.2534L17.1289 17.3799L16.7028 17.651C16.588 17.7354 16.4807 17.827 16.3508 17.8978C16.3442 17.9013 16.3381 17.9057 16.3325 17.9106C16.2403 17.9932 16.1195 18.0372 16.0081 18.1372L15.8269 18.2602C15.8212 18.158 15.8182 18.053 15.8226 17.9514C15.8265 17.8636 15.8343 17.6028 15.816 17.5196C15.7691 17.3062 15.7878 17.0604 15.7561 16.9755C15.7265 16.896 15.746 16.812 15.7332 16.7867C15.7108 16.7422 15.707 16.6823 15.6982 16.6192C15.6802 16.6946 15.6802 16.6944 15.6433 16.7556C15.6149 16.8035 15.6122 16.8692 15.5679 16.9061L15.5083 17.1357C15.4609 17.3928 15.3859 17.9249 15.3627 18.1796L15.2988 18.7089C15.2667 18.9148 15.4744 19.0728 15.6625 18.9888C16.0838 18.8005 16.7595 18.3968 17.2086 18.1378C17.1781 18.5196 17.1734 19.1318 17.1849 19.5148C17.1889 19.6523 17.1814 20.3437 17.1633 20.4316C17.1362 20.5628 17.1551 21.1894 17.1595 21.3948C17.1658 21.6911 17.0135 21.9433 16.7518 22.0766C16.5742 22.1671 16.4434 22.1609 16.2569 22.1583L14.6798 22.1398C14.5142 22.1384 14.3451 22.1436 14.1828 22.1389C13.919 22.1318 13.6551 22.1324 13.3908 22.1296C13.3345 22.1293 13.2714 22.1272 13.2241 22.122C12.9067 22.088 12.5773 22.109 12.2497 22.1064L3.99452 22.0783C3.74189 22.0772 3.54821 22.0921 3.33869 21.8976C3.17808 21.7486 3.12514 21.5805 3.12552 21.3757C3.14098 17.5399 3.19095 13.6901 3.17607 9.85637C3.17333 9.15336 3.16018 8.4445 3.1657 7.74158C3.17036 7.15541 3.15096 6.57283 3.16354 5.98445C3.17093 5.63688 3.16488 5.28106 3.16517 4.92883L3.16599 3.01978C3.16604 2.71349 3.12711 2.43019 3.39581 2.20896C3.6025 2.0388 3.79988 2.06563 4.04645 2.06443C6.68669 2.05147 9.32348 2.05656 11.9636 2.05267C12.2183 2.05214 12.4735 2.0472 12.7279 2.04941C13.9429 2.05997 15.1726 2.05138 16.3889 2.05022C16.726 2.04998 17.0099 2.30266 17.0477 2.62709C17.0698 2.81635 17.055 3.77189 17.0628 4.00766C17.0753 4.38178 17.0975 4.7485 17.0909 5.13816C17.0904 5.15674 17.0912 5.17776 17.0923 5.19581C17.1051 5.3737 17.1021 5.5609 17.1024 5.74589C17.1031 6.03451 17.123 6.24638 17.1259 6.52171C17.1353 7.40962 17.129 8.30285 17.1552 9.18797C17.1726 9.77904 17.1675 10.3838 17.1699 10.9763C17.1705 11.0604 17.1751 11.1509 17.1825 11.2266C17.2126 11.5539 17.2265 11.9054 17.2311 12.2691C17.2328 12.4112 17.2371 12.5472 17.2544 12.6497C17.2779 12.7923 17.2718 13.0965 17.2817 13.1372C17.2883 13.1656 17.2934 13.199 17.2975 13.2353L17.1811 13.4447L16.8114 14.1423C16.5898 14.5966 16.3327 15.1235 16.1299 15.5811C16.0355 15.794 15.7975 16.2694 15.7342 16.4514C15.7021 16.5437 15.7843 16.4111 15.809 16.3973C15.8115 16.4077 15.8139 16.4173 15.817 16.4271C15.8179 16.4461 15.7958 16.4824 15.8517 16.4197C15.8299 16.4671 15.7658 16.5954 15.7623 16.6372C15.8128 16.5955 15.8581 16.5335 15.9025 16.4823C15.997 16.3732 16.1304 16.1617 16.1892 16.0352L16.3293 15.8078C16.3897 15.7102 16.3913 15.7648 16.4479 15.6578C16.5115 15.5376 16.6431 15.2785 16.7146 15.1758C16.8609 14.9658 17.4874 13.9264 17.5172 13.8966C17.6072 13.8066 17.6513 13.692 17.7161 13.5843L19.4776 10.5964L20.3474 9.14011L21.4579 9.80472ZM17.3537 18.053C17.3294 18.0672 17.3053 18.0811 17.2811 18.0954C17.2833 18.1476 17.2849 18.1998 17.2871 18.2531C17.2894 18.2241 17.2931 18.1184 17.3048 18.1424C17.3089 18.1511 17.3114 18.1842 17.3144 18.2071C17.3218 18.2304 17.3291 18.2541 17.3368 18.2784C17.351 18.2271 17.3483 18.1312 17.3537 18.053ZM23.1779 8.33453C23.1179 8.50354 22.9491 8.7216 22.8458 8.88077C22.7451 9.0492 22.6388 9.21686 22.4977 9.35573C22.4709 9.38213 22.4535 9.37315 22.3731 9.4511L22.2777 9.52406C22.3444 9.66446 22.2951 9.78187 22.219 9.90091C22.1509 10.0075 22.0913 10.1184 22.0312 10.2302L21.5339 11.1047C21.4899 11.1826 21.4506 11.2626 21.406 11.34L20.5496 12.8697C20.1038 13.6769 19.6146 14.5239 19.1557 15.3286C18.8448 15.8736 18.5065 16.4285 18.1864 16.9731C18.1088 17.1043 18.0342 17.2381 17.9492 17.3641L17.6984 17.797C17.655 17.8927 17.4715 17.9837 17.3726 18.0424C17.3994 18.3043 17.411 18.8425 17.4202 19.1401L17.4932 21.2582L17.4964 21.4703C17.4838 22.0528 17.0219 22.5185 16.4323 22.562L15.9197 22.5798C13.722 22.6494 11.5346 22.6526 9.33423 22.6615C9.03456 22.6624 8.68037 22.6777 8.39693 22.6639C8.34841 22.662 8.29983 22.662 8.2513 22.6639C7.872 22.6773 7.48781 22.6683 7.10631 22.6727L3.88095 22.6893C3.75984 22.6902 3.64056 22.6881 3.52076 22.6622C2.92244 22.5331 2.50503 22.0026 2.5034 21.3951L2.49356 14.2893C2.49303 14.2109 2.49437 14.1313 2.49245 14.0543C2.48237 13.5651 2.48616 13.0741 2.48343 12.5841C2.47935 12.225 2.47493 11.866 2.47114 11.5069C2.4698 11.4 2.46759 11.291 2.46922 11.185C2.47498 10.8514 2.47114 10.5204 2.46677 10.1865L2.46077 7.53739C2.45996 7.30262 2.45367 7.0679 2.45367 6.83318L2.43629 2.96016C2.43341 2.62056 2.41762 2.40005 2.5836 2.06904C2.81655 1.60454 3.29064 1.33426 3.79882 1.326L4.22895 1.32437C6.66687 1.31438 9.1152 1.30522 11.5523 1.31179L15.1662 1.326C15.5575 1.32715 16.0305 1.3211 16.4124 1.33718C16.8654 1.35629 17.2639 1.55995 17.5172 1.93867C17.7561 2.29589 17.7484 2.57126 17.7459 2.95771C17.7356 4.53802 17.7226 6.16301 17.6833 7.73635C17.6802 7.86022 17.675 7.98404 17.6677 8.10773C17.6437 8.50997 17.6338 8.9281 17.6229 9.34507L17.5475 11.2074C17.5333 11.5009 17.5202 11.7965 17.503 12.0838L17.4481 12.7139C17.4191 12.7901 17.4038 12.9314 17.3877 13.0732L17.932 12.105C17.9426 12.0908 17.9525 12.0731 17.9599 12.0572C18.02 11.926 18.1014 11.802 18.1711 11.6738L18.6053 10.8997L19.2579 9.73147L19.9651 8.49955C20.0321 8.38262 20.1668 8.32877 20.292 8.35882C20.3134 8.18597 20.3588 7.95254 20.4373 7.79918L20.5759 7.52155C20.5919 7.46482 20.6075 7.48454 20.6095 7.46443L20.8112 7.06656C20.8518 6.99763 20.96 6.8868 21.0284 6.84029C21.3091 6.64944 21.6236 6.65621 21.9223 6.79301L22.1048 6.87936C22.1499 6.89746 22.1323 6.90326 22.21 6.93538L22.6369 7.16218C22.7469 7.21858 22.8 7.2336 22.9035 7.31467C23.199 7.54584 23.3076 7.97995 23.1779 8.33453ZM15.2137 20.2263C15.165 19.9902 15.0546 19.9033 15.0039 19.8003C14.997 19.7861 14.9884 19.7728 14.9782 19.7607C14.841 19.6059 14.6258 19.4896 14.4158 19.4516C14.2662 19.4245 14.1813 19.455 14.1259 19.4538C14.0098 19.4512 13.8108 19.5317 13.7147 19.5888C13.2723 19.8517 13.168 20.3333 12.9112 20.2706L12.7997 20.2329C12.7318 20.1973 12.6016 19.9263 12.5546 19.8516C12.2694 19.3988 11.8826 19.1361 11.3249 19.1936C11.2456 19.2018 11.0367 19.2435 10.9827 19.283C10.9777 19.2868 10.9716 19.2889 10.9653 19.289C10.9272 19.2886 10.9062 19.3129 10.8598 19.3352C10.4241 19.5436 10.2401 19.8867 10.237 20.3687C10.2357 20.5643 10.2827 20.4719 10.2936 20.4744C10.3232 20.4813 10.3073 20.5058 10.3414 20.4889C10.3446 20.5133 10.3447 20.5406 10.3591 20.5536C10.4932 20.5072 10.4584 20.3424 10.519 20.3424C10.5609 20.3424 10.5403 20.2521 10.5873 20.2123C10.6611 20.1495 10.7066 20.0811 10.816 19.997C10.8307 19.9857 10.857 20.0096 10.8816 19.9738C10.898 19.9498 10.9119 19.9524 10.9313 19.9388C11.1285 19.7997 11.3016 19.7766 11.5322 19.8011C11.6181 19.8101 11.7228 19.8833 11.7825 19.9374C12.0169 20.1497 11.944 20.4027 12.3299 20.7589C12.3965 20.8204 12.5939 20.9268 12.6624 20.9455C13.0021 21.0383 13.2894 21.0238 13.5798 20.7731C13.7531 20.6235 14.0077 20.269 14.0676 20.2345C14.2397 20.1352 14.1381 20.1976 14.2755 20.1476C14.3611 20.1165 14.3469 20.1475 14.3785 20.1399C14.4037 20.1356 14.4345 20.1214 14.458 20.1405C14.4589 20.1413 14.4605 20.1413 14.4624 20.1405C14.4914 20.1281 14.5012 20.1632 14.5433 20.1539C14.5669 20.1487 14.6584 20.2068 14.672 20.2173C14.7259 20.2591 14.7963 20.2681 14.8335 20.3113C14.9314 20.4251 14.9374 20.3416 15.0163 20.4141C15.0485 20.4436 15.0693 20.4112 15.0909 20.4381C15.1093 20.461 15.0903 20.4299 15.1606 20.4559C15.164 20.4088 15.1842 20.396 15.1863 20.3821C15.1971 20.3125 15.2335 20.3148 15.2137 20.2263Z" fill="white"/>
</svg>
