<svg width="25" height="21" viewBox="0 0 25 21" fill="none" xmlns="http://www.w3.org/2000/svg">
<path d="M23.5768 0.046875H22.4195C22.2235 0.046875 22.0643 0.206016 22.0643 0.401906C22.0644 0.496109 22.1018 0.586445 22.1684 0.653056C22.235 0.719667 22.3253 0.7571 22.4195 0.757125H23.5768C23.6923 0.757125 23.7897 0.854531 23.7897 0.970078V8.11983C23.7897 8.23533 23.6923 8.33297 23.5768 8.33297H13.089V8.02078C13.089 7.2098 12.4678 6.52547 11.6748 6.46308C10.7803 6.39258 10.0156 7.10433 10.0156 7.99477V8.33297H1.4232C1.30766 8.33297 1.21025 8.23533 1.21025 8.11983V6.54398C1.21026 6.49734 1.20108 6.45115 1.18323 6.40806C1.16538 6.36497 1.13921 6.32582 1.10622 6.29285C1.07323 6.25987 1.03407 6.23373 0.990968 6.2159C0.947866 6.19807 0.901674 6.18892 0.855031 6.18895C0.76089 6.18902 0.670623 6.22644 0.604055 6.29301C0.537487 6.35958 0.500062 6.44984 0.5 6.54398V8.11983C0.5 8.62885 0.914375 9.04303 1.4232 9.04303H10.0156V13.0686C10.0156 13.221 9.84294 13.3072 9.72158 13.2164C8.39605 12.2309 6.16255 13.6626 7.71158 15.7467C7.71158 15.7467 9.42786 17.8991 9.43227 17.9048C10.1602 18.8146 10.098 18.0754 10.098 19.6544C10.098 20.2467 10.58 20.7286 11.1723 20.7286H15.7974C16.3901 20.7286 16.8717 20.2467 16.8717 19.6544V18.6249C16.8717 18.4887 16.9275 18.357 17.0284 18.2547C17.538 17.7372 17.8187 17.055 17.8187 16.3334V14.9427C17.8187 13.4313 16.5889 12.2018 15.0776 12.2018H13.089V9.04303H23.5768C24.0856 9.04303 24.5 8.62885 24.5 8.11983V0.970078C24.5 0.46125 24.0856 0.046875 23.5768 0.046875ZM15.0776 12.9119C16.1974 12.9119 17.1084 13.823 17.1084 14.9427V16.3334C17.1084 16.8675 16.9006 17.3727 16.5223 17.7561C16.2897 17.9919 16.1614 18.3007 16.1614 18.6249V19.6544C16.1614 19.855 15.998 20.0186 15.7974 20.0186H11.1723C10.9716 20.0186 10.8083 19.855 10.8083 19.6544V18.7724C10.8083 18.41 10.643 18.0672 10.3542 17.8325C10.0852 17.6135 10.1421 17.6552 8.27797 15.3182C8.08662 15.0597 7.688 14.4219 8.02123 13.9739C8.32152 13.5701 8.89391 13.4863 9.29783 13.7864C9.88578 14.2244 10.7259 13.8051 10.7259 13.0686V7.99477C10.7259 7.53056 11.1229 7.13231 11.6189 7.17094C12.045 7.20445 12.3788 7.57763 12.3788 8.02078V12.3201C12.3788 12.6464 12.6445 12.9119 12.9706 12.9119H15.0776Z" fill="white"/>
</svg>
