<svg width="22" height="22" viewBox="0 0 22 22" fill="none" xmlns="http://www.w3.org/2000/svg">
<path d="M14 11C14 12.6569 12.6568 14 11 14C9.34313 14 7.99999 12.6569 7.99999 11C7.99999 9.34315 9.34313 8 11 8C12.6568 8 14 9.34315 14 11Z" stroke="#333333" stroke-width="1.5"/>
<path d="M12.7654 1.15224C12.3978 1 11.9319 1 11 1C10.0681 1 9.60216 1 9.23462 1.15224C8.74457 1.35523 8.35522 1.74458 8.15223 2.23463C8.05957 2.45834 8.0233 2.7185 8.00911 3.09799C7.98826 3.65568 7.70226 4.17189 7.21894 4.45093C6.73564 4.72996 6.14559 4.71954 5.65219 4.45876C5.31645 4.2813 5.07301 4.18262 4.83294 4.15102C4.30704 4.08178 3.77518 4.22429 3.35436 4.5472C3.03874 4.78938 2.80577 5.1929 2.33983 5.99993C1.87389 6.80697 1.64092 7.21048 1.58899 7.60491C1.51976 8.1308 1.66227 8.66266 1.98518 9.08348C2.13256 9.27556 2.3397 9.43703 2.66119 9.63902C3.1338 9.93598 3.43789 10.4419 3.43786 11C3.43783 11.5581 3.13375 12.0639 2.66118 12.3608C2.33965 12.5629 2.13248 12.7244 1.98508 12.9165C1.66217 13.3373 1.51966 13.8691 1.5889 14.395C1.64082 14.7894 1.87379 15.193 2.33973 16C2.80568 16.807 3.03865 17.2106 3.35426 17.4527C3.77508 17.7756 4.30694 17.9181 4.83284 17.8489C5.07289 17.8173 5.31632 17.7186 5.65204 17.5412C6.14547 17.2804 6.73556 17.27 7.2189 17.549C7.70224 17.8281 7.98826 18.3443 8.00911 18.9021C8.02331 19.2815 8.05957 19.5417 8.15223 19.7654C8.35522 20.2554 8.74457 20.6448 9.23462 20.8478C9.60216 21 10.0681 21 11 21C11.9319 21 12.3978 21 12.7654 20.8478C13.2554 20.6448 13.6448 20.2554 13.8477 19.7654C13.9404 19.5417 13.9767 19.2815 13.9909 18.902C14.0117 18.3443 14.2977 17.8281 14.781 17.549C15.2643 17.2699 15.8544 17.2804 16.3479 17.5412C16.6836 17.7186 16.927 17.8172 17.167 17.8488C17.6929 17.9181 18.2248 17.7756 18.6456 17.4527C18.9612 17.2105 19.1942 16.807 19.6601 15.9999C20.1261 15.1929 20.3591 14.7894 20.411 14.395C20.4802 13.8691 20.3377 13.3372 20.0148 12.9164C19.8674 12.7243 19.6602 12.5628 19.3387 12.3608C18.8662 12.0639 18.5621 11.558 18.5621 10.9999C18.5621 10.4418 18.8662 9.93608 19.3387 9.63919C19.6603 9.43715 19.8675 9.27566 20.0149 9.08355C20.3378 8.66273 20.4803 8.13087 20.4111 7.60497C20.3592 7.21055 20.1262 6.80703 19.6602 6C19.1943 5.19297 18.9613 4.78945 18.6457 4.54727C18.2249 4.22436 17.693 4.08185 17.1671 4.15109C16.9271 4.18269 16.6837 4.28136 16.3479 4.4588C15.8545 4.71959 15.2644 4.73002 14.7811 4.45096C14.2977 4.17191 14.0117 3.65566 13.9909 3.09794C13.9767 2.71848 13.9404 2.45833 13.8477 2.23463C13.6448 1.74458 13.2554 1.35523 12.7654 1.15224Z" stroke="#333333" stroke-width="1.5"/>
</svg>
